<?xml version="1.0" encoding="UTF-8"?>
<svg width="201px" height="202px" viewBox="0 0 201 202" version="1.1" xmlns="http://www.w3.org/2000/svg" xmlns:xlink="http://www.w3.org/1999/xlink">
    <title>形状结合</title>
    <g id="页面-1" stroke="none" stroke-width="1" fill="none" fill-rule="evenodd">
        <path d="M82,109 C87.5228475,109 92,113.477153 92,119 L92,119 L92,191.890714 C92,191.926944 91.9998031,191.963174 91.9994093,191.999403 C91.9393819,197.521924 87.413832,201.95015 81.8913108,201.890123 L81.8913108,201.890123 L9.89131077,201.107514 C4.411186,201.047948 6.71161371e-16,196.588553 0,191.108105 L0,191.108105 L0,119 C-6.76353751e-16,113.477153 4.4771525,109 10,109 L10,109 Z M188,109 C193.522847,109 198,113.477153 198,119 L198,119 L198,191.890714 C198,191.926944 197.999803,191.963174 197.999409,191.999403 C197.939382,197.521924 193.413832,201.95015 187.891311,201.890123 L187.891311,201.890123 L115.891311,201.107514 C110.411186,201.047948 106,196.588553 106,191.108105 L106,191.108105 L106,119 C106,113.477153 110.477153,109 116,109 L116,109 Z M153.5,0 C179.733526,0 201,21.2664744 201,47.5 C201,73.7335256 179.733526,95 153.5,95 C127.266474,95 106,73.7335256 106,47.5 C106,21.2664744 127.266474,0 153.5,0 Z M82,2 C87.5228475,2 92,6.4771525 92,12 L92,12 L92,84.8907136 C92,84.9269442 91.9998031,84.9631745 91.9994093,84.9994029 C91.9393819,90.5219241 87.413832,94.9501503 81.8913108,94.8901229 L81.8913108,94.8901229 L9.89131077,94.1075142 C4.411186,94.0479477 6.71161371e-16,89.5885534 0,84.1081049 L0,84.1081049 L0,12 C-6.76353751e-16,6.4771525 4.4771525,2 10,2 L10,2 Z M153.5,14 C134.998461,14 120,28.9984609 120,47.5 C120,66.0015391 134.998461,81 153.5,81 C172.001539,81 187,66.0015391 187,47.5 C187,28.9984609 172.001539,14 153.5,14 Z" id="形状结合" fill="#000000" fill-rule="nonzero"></path>
    </g>
</svg>