<?xml version="1.0" encoding="UTF-8"?>
<svg width="176px" height="220px" viewBox="0 0 176 220" version="1.1" xmlns="http://www.w3.org/2000/svg" xmlns:xlink="http://www.w3.org/1999/xlink">
    <title>形状结合</title>
    <g id="页面-1" stroke="none" stroke-width="1" fill="none" fill-rule="evenodd">
        <path d="M166,0 C171.522847,-1.01453063e-15 176,4.4771525 176,10 L176,210 C176,215.522847 171.522847,220 166,220 L10,220 C4.4771525,220 6.76353751e-16,215.522847 0,210 L0,10 C-6.76353751e-16,4.4771525 4.4771525,1.01453063e-15 10,0 L166,0 Z M101,148 L25,148 L25,162 L101,162 L101,148 Z M151,103 L25,103 L25,117 L151,117 L151,103 Z M151,58 L25,58 L25,72 L151,72 L151,58 Z" id="形状结合" fill="#fff"></path>
    </g>
</svg>