<?xml version="1.0" encoding="UTF-8"?>
<svg width="220px" height="176px" viewBox="0 0 220 176" version="1.1" xmlns="http://www.w3.org/2000/svg" xmlns:xlink="http://www.w3.org/1999/xlink">
    <title>形状结合</title>
    <g id="页面-1" stroke="none" stroke-width="1" fill="none" fill-rule="evenodd">
        <path d="M126.374798,76.7458474 L219.999798,144.836847 L220,166 C220,171.522847 215.522847,176 210,176 L10,176 C4.4771525,176 6.7635242e-16,171.522847 0,166 L-0.000201883725,144.837847 L93.6247981,76.7458474 L110,88.6554812 L126.374798,76.7458474 Z M0.0819042433,8.71414319 L81.7237981,68.0908474 L-0.000201883725,127.526847 L0,10 C-5.33427469e-17,9.56431176 0.0278629739,9.13513126 0.0819042433,8.71414319 Z M220,10 L219.999798,127.526847 L138.275798,68.0908474 L219.918352,8.71613845 C219.972225,9.1364873 220,9.56500005 220,10 Z M208.099798,-0.000152590122 L110,71.343 L11.8997981,-0.000152590122 L208.099798,-0.000152590122 Z" id="形状结合" fill="#000000"></path>
    </g>
</svg>