<?xml version="1.0" encoding="UTF-8"?>
<svg width="220px" height="199px" viewBox="0 0 220 199" version="1.1" xmlns="http://www.w3.org/2000/svg" xmlns:xlink="http://www.w3.org/1999/xlink">
    <title>形状结合</title>
    <g id="页面-1" stroke="none" stroke-width="1" fill="none" fill-rule="evenodd">
        <path d="M-0.000796692606,87.113 L110.505692,107.114764 L219.999203,87.115 L220,189 C220,194.522847 215.522847,199 210,199 L10,199 C4.4771525,199 6.76325315e-16,194.522847 0,189 L-0.000796692606,87.113 Z M140.5,0 C149.780923,0 157.324796,7.43719564 157.496992,16.6769603 L157.5,17 L157.5,29 L210,29 C215.522847,29 220,33.4771525 220,39 L219.999203,72.884 L110.494,92.884 L-0.000796692606,72.886 L0,39 C-6.76325315e-16,33.4771525 4.4771525,29 10,29 L63.5,29 L63.5,17 C63.5,7.71907696 70.9371956,0.175204042 80.1769603,0.00300785127 L80.5,0 L140.5,0 Z M140.5,14 L80.5,14 C78.9023191,14 77.5963391,15.24892 77.5050927,16.8237272 L77.5,17 L77.5,29 L143.5,29 L143.5,17 C143.5,15.4023191 142.25108,14.0963391 140.676273,14.0050927 L140.5,14 Z" id="形状结合" fill="#000000"></path>
    </g>
</svg>